<svg class="border shadow-md" viewBox="0 0 312.84 556.16" style="width: 312.84px; height: 556.16px;" xmlns="http://www.w3.org/2000/svg" preserveAspectRatio="none"><rect class="bg" id="bg" x="0" y="0" width="312.84" height="556.16" fill="#f3f3f3"/><defs><filter id="f1" x="-200%" y="-200%" width="500%" height="500%"><feGaussianBlur stdDeviation="25"/></filter></defs><g transform="translate(-203.6511298647498 -36.12122328483974) rotate(4 115.40325860216973 123.40597094862002 )"><rect x="8" y="8" opacity="0.4" width="1914.326330801517" height="319.05438846691953" fill="#283150" filter="url(#f1)"/><rect x="-8" y="-8" opacity="0.4" width="1914.326330801517" height="319.05438846691953" fill="#283150" filter="url(#f1)"/><rect x="0" y="0" width="1914.326330801517" height="319.05438846691953" fill="#283150"/></g><g transform="translate(-288.51817727660114 159.05962321125253) rotate(0 30.536211190318397 318.5868174447123 )"><rect x="8" y="8" opacity="0.4" width="1914.326330801517" height="319.05438846691953" fill="#283150" filter="url(#f1)"/><rect x="-8" y="-8" opacity="0.4" width="1914.326330801517" height="319.05438846691953" fill="#283150" filter="url(#f1)"/><rect x="0" y="0" width="1914.326330801517" height="319.05438846691953" fill="#283150"/></g><g transform="translate(-486.54194211591886 237.0632586021697) rotate(11 -167.48755364899932 396.59045283562943 )"><rect x="8" y="8" opacity="0.4" width="1914.326330801517" height="319.05438846691953" fill="#283150" filter="url(#f1)"/><rect x="-8" y="-8" opacity="0.4" width="1914.326330801517" height="319.05438846691953" fill="#283150" filter="url(#f1)"/><rect x="0" y="0" width="1914.326330801517" height="319.05438846691953" fill="#283150"/></g><g transform="translate(-681.7227886120112 152.19621119031837) rotate(16 -362.66840014509165 311.7234054237781 )"><rect x="8" y="8" opacity="0.4" width="1914.326330801517" height="319.05438846691953" fill="#283150" filter="url(#f1)"/><rect x="-8" y="-8" opacity="0.4" width="1914.326330801517" height="319.05438846691953" fill="#283150" filter="url(#f1)"/><rect x="0" y="0" width="1914.326330801517" height="319.05438846691953" fill="#283150"/></g><g transform="translate(-759.7264240029283 -45.827553648999356) rotate(21 -440.6720355360088 113.69964058446041 )"><rect x="8" y="8" opacity="0.4" width="1914.326330801517" height="319.05438846691953" fill="#283150" filter="url(#f1)"/><rect x="-8" y="-8" opacity="0.4" width="1914.326330801517" height="319.05438846691953" fill="#283150" filter="url(#f1)"/><rect x="0" y="0" width="1914.326330801517" height="319.05438846691953" fill="#283150"/></g><g transform="translate(-674.8593765910771 -241.00840014509166) rotate(12 -355.8049881241575 -81.48120591163189 )"><rect x="8" y="8" opacity="0.4" width="1914.326330801517" height="319.05438846691953" fill="black" filter="url(#f1)"/><rect x="-8" y="-8" opacity="0.4" width="1914.326330801517" height="319.05438846691953" fill="black" filter="url(#f1)"/><rect x="0" y="0" width="1914.326330801517" height="319.05438846691953" fill="#283150"/></g><g transform="translate(-476.8356117517594 -319.0120355360088) rotate(11 -157.78122328483985 -159.48484130254903 )"><rect x="8" y="8" opacity="0.4" width="1914.326330801517" height="319.05438846691953" fill="black" filter="url(#f1)"/><rect x="-8" y="-8" opacity="0.4" width="1914.326330801517" height="319.05438846691953" fill="black" filter="url(#f1)"/><rect x="0" y="0" width="1914.326330801517" height="319.05438846691953" fill="#283150"/></g><g transform="translate(-281.65476525566703 -234.14498812415758) rotate(12 37.3996232112525 -74.61779389069781 )"><rect x="8" y="8" opacity="0.4" width="1914.326330801517" height="319.05438846691953" fill="black" filter="url(#f1)"/><rect x="-8" y="-8" opacity="0.4" width="1914.326330801517" height="319.05438846691953" fill="black" filter="url(#f1)"/><rect x="0" y="0" width="1914.326330801517" height="319.05438846691953" fill="#283150"/></g></svg>